<?xml version="1.0" encoding="UTF-8" standalone="no"?>
<!-- Created with Inkscape (http://www.inkscape.org/) -->

<svg
   xmlns:dc="http://purl.org/dc/elements/1.1/"
   xmlns:cc="http://creativecommons.org/ns#"
   xmlns:rdf="http://www.w3.org/1999/02/22-rdf-syntax-ns#"
   xmlns:svg="http://www.w3.org/2000/svg"
   xmlns="http://www.w3.org/2000/svg"
   xmlns:sodipodi="http://sodipodi.sourceforge.net/DTD/sodipodi-0.dtd"
   xmlns:inkscape="http://www.inkscape.org/namespaces/inkscape"
   width="210mm"
   height="297mm"
   viewBox="0 0 744.09448819 1052.3622047"
   id="svg2"
   version="1.1"
   inkscape:version="0.91 r13725"
   sodipodi:docname="strokesDemo.svg">
  <defs
     id="defs4" />
  <sodipodi:namedview
     id="base"
     pagecolor="#ffffff"
     bordercolor="#666666"
     borderopacity="1.0"
     inkscape:pageopacity="0.0"
     inkscape:pageshadow="2"
     inkscape:zoom="0.35"
     inkscape:cx="375"
     inkscape:cy="520"
     inkscape:document-units="px"
     inkscape:current-layer="layer1"
     showgrid="false"
     inkscape:window-width="1366"
     inkscape:window-height="744"
     inkscape:window-x="0"
     inkscape:window-y="24"
     inkscape:window-maximized="1" />
  <metadata
     id="metadata7">
    <rdf:RDF>
      <cc:Work
         rdf:about="">
        <dc:format>image/svg+xml</dc:format>
        <dc:type
           rdf:resource="http://purl.org/dc/dcmitype/StillImage" />
        <dc:title></dc:title>
      </cc:Work>
    </rdf:RDF>
  </metadata>
  <g
     inkscape:label="Layer 1"
     inkscape:groupmode="layer"
     id="layer1">
    <path
       style="fill:none;fill-rule:evenodd;stroke:#000000;stroke-width:1px;stroke-linecap:butt;stroke-linejoin:miter;stroke-opacity:1"
       d="m 157.14286,112.3622 c 11.42857,0 22.85714,0 34.28571,0 9.52381,0 19.08673,-0.86224 28.57143,0 22.2908,2.02644 44.38822,7.79518 65.71429,14.28572 11.52483,3.50756 22.85714,7.61905 34.28571,11.42857 54.54677,18.18226 3.72068,0.68097 40,14.28571 2.81994,1.05748 5.77514,1.73863 8.57143,2.85715 4.87668,-1.01091 5.50009,4.17862 8.57143,5.71428 0.85183,0.42592 2.0053,-0.42591 2.85714,0 11.89074,5.94538 -3.05439,-0.19724 2.85714,5.71429 0.67344,0.67343 2.18371,-0.67344 2.85715,0 0.5841,0.5841 -0.56642,7.43859 0,8.57143 0.60233,1.20467 2.2548,1.65246 2.85714,2.85714 0.29669,0.59339 0,19.50453 0,20 0,16.98735 0.93865,31.9391 -5.71429,48.57143 -4.43191,11.07979 -11.80612,20.7551 -17.14285,31.42857 -6.09822,12.19643 -11.04465,24.94643 -17.14286,37.14286 -5.33674,10.67346 -11.80612,20.7551 -17.14286,31.42857 -3.24369,6.48738 -5.32773,13.51261 -8.57143,20 -10.8369,21.6738 -6.03105,6.45342 -14.28571,25.71428 -1.18637,2.76819 -1.90476,5.71429 -2.85714,8.57143 -0.95239,2.85715 -2.1267,5.64966 -2.85715,8.57143 -0.23098,0.92395 0.30117,1.95364 0,2.85714 -0.67343,2.02031 -2.1837,3.69399 -2.85714,5.71429 -0.30117,0.90351 0,1.90476 0,2.85714 0,0.95238 -0.90351,2.55598 0,2.85715 2.71052,0.9035 5.71429,0 8.57143,0 11.42857,0 22.85714,0 34.28571,0 35.2381,0 70.47619,0 105.71429,0 10.47619,0 20.95238,0 31.42857,0 5.71429,0 11.42857,0 17.14286,0 0.95238,0 1.90476,0 2.85714,0 0.95238,0 2.00531,-0.42592 2.85714,0 1.20468,0.60233 1.65247,2.2548 2.85715,2.85714 0.85183,0.42592 2.1837,-0.67344 2.85714,0 0.67343,0.67343 -0.67344,2.18371 0,2.85714 0.67343,0.67344 2.18371,-0.67343 2.85714,0 0.67344,0.67344 0,1.90476 0,2.85714 0,7.61905 0,15.2381 0,22.85715 0,12.64762 1.71429,7.42857 -8.57143,20 -28.61231,34.9706 -5.20699,5.40281 -37.14285,40 -5.04528,5.46571 -9.28215,11.63893 -14.28572,17.14285 -4.53001,4.98302 -9.78067,9.28012 -14.28571,14.28572 -33.28674,36.98526 9.22087,-6.36373 -22.85715,25.71428 -1.90476,1.90477 -3.55929,4.09805 -5.71428,5.71429 -1.70367,1.27775 -3.69398,2.18371 -5.71429,2.85714 -0.90351,0.30117 -2.1837,-0.67343 -2.85714,0 -0.67344,0.67344 0.67344,2.18371 0,2.85715 -0.67344,0.67343 -2.18371,-0.67344 -2.85714,0 -0.67344,0.67343 0,1.90476 0,2.85714 0,0.95238 -0.67344,2.18371 0,2.85714 0.67343,0.67344 2.28571,-0.7619 2.85714,0 2.55551,3.40734 3.80952,7.61905 5.71429,11.42857 3.80952,7.61905 7.78198,15.15879 11.42857,22.85715 12.75001,26.91668 23.94232,54.76651 40,80 2.55655,4.01743 5.80362,7.55365 8.57143,11.42857 1.99589,2.79424 3.56917,5.89003 5.71428,8.57143 14.72533,18.40665 0.0728,1.46495 8.57143,5.71428 1.20468,0.60234 1.65247,2.25481 2.85714,2.85714 0.85184,0.42592 2.00531,-0.42591 2.85715,0 1.20467,0.60234 1.65246,2.25481 2.85714,2.85715 1.13283,0.56641 7.98732,-0.58411 8.57143,0 0.67343,0.67343 -0.67344,2.18371 0,2.85714 1.90099,1.90099 3.81329,-1.90099 5.71428,0 0.67344,0.67344 -0.67343,2.18371 0,2.85714 0.67344,0.67344 2.18371,-0.67343 2.85715,0 0.67343,0.67344 -0.42592,2.00531 0,2.85715 0.60233,1.20467 2.2548,1.65246 2.85714,2.85714 0.42496,0.84993 0,15.94096 0,17.14286 0,0.95238 0.7619,2.28571 0,2.85714 -3.40734,2.55551 -7.70538,3.64585 -11.42857,5.71428 -4.85445,2.69692 -9.23019,6.27347 -14.28572,8.57143 -5.48349,2.4925 -11.58281,3.3976 -17.14285,5.71429 -21.48985,8.9541 -12.06293,8.73002 -34.28572,14.28571 -5.62014,1.40504 -11.46225,1.72102 -17.14286,2.85715 -3.85051,0.7701 -7.54127,2.30181 -11.42857,2.85714 -2.82842,0.40406 -5.76977,-0.56033 -8.57143,0 -2.08823,0.41765 -3.69398,2.18371 -5.71428,2.85714 -1.57522,0.52507 -10.81772,-0.61085 -11.42857,0 -0.67344,0.67344 0.67343,2.18371 0,2.85714 -1.34687,1.34687 -4.01062,-0.85183 -5.71429,0 -1.20468,0.60234 -1.65246,2.25481 -2.85714,2.85715 -0.85184,0.42592 -2.00531,-0.42592 -2.85714,0 -1.20468,0.60234 -1.65247,2.2548 -2.85715,2.85714 -1.70367,0.85184 -4.01061,-0.85183 -5.71428,0 -1.20468,0.60234 -1.90476,1.90476 -2.85715,2.85714 -1.90476,0 -3.86639,-0.46197 -5.71428,0 -4.13201,1.03301 -7.29656,4.68129 -11.42857,5.71429 -3.69578,0.92394 -7.81454,-1.20468 -11.42857,0 -1.27776,0.42592 -1.57939,2.43122 -2.85715,2.85714 -1.80701,0.60234 -3.80952,0 -5.71428,0 -0.95238,0 -2.00531,-0.42592 -2.85715,0 -1.20467,0.60234 -1.65246,2.25481 -2.85714,2.85714 -2.28571,1.14286 -6.28571,-1.14285 -8.57143,0 -0.54691,0.27346 -11.15511,10.88166 -11.42857,11.42858 -0.42592,0.85183 0.42592,2.0053 0,2.85714 -0.60234,1.20468 -1.90476,1.90476 -2.85714,2.85714 -0.95238,0.95238 -1.90476,1.90476 -2.85714,2.85714 -1.50419,1.50419 -7.04548,7.80846 -8.57143,8.57143 -0.85184,0.42592 -2.00531,-0.42591 -2.85715,0 -1.20467,0.60234 -1.65246,2.25481 -2.85714,2.85715 -0.85183,0.42591 -2.00531,-0.42592 -2.85714,0 -1.20468,0.60233 -1.65247,2.2548 -2.85714,2.85714 -0.73872,0.36936 -15.11771,0 -17.14286,0 -3.80953,0 -7.61905,0 -11.42857,0 -0.95238,0 -1.90476,0 -2.85715,0 -0.95238,0 -2.0053,0.42592 -2.85714,0 -6.3173,-3.15865 -0.88663,-1.77327 -2.85714,-5.71429 -0.60234,-1.20467 -2.25481,-1.65246 -2.85714,-2.85714 -0.42592,-0.85183 0.42591,-2.00531 0,-2.85714 -1.20468,-2.40936 -4.50961,-3.30493 -5.71429,-5.71429 -0.42592,-0.85183 0.42592,-2.00531 0,-2.85714 -0.60234,-1.20468 -1.90476,-1.90476 -2.85714,-2.85714 -0.95238,-0.95238 -1.90476,-1.90477 -2.85715,-2.85715 -0.95238,-0.95238 -1.90476,-1.90476 -2.85714,-2.85714 -0.95238,-0.95238 -2.2548,-1.65247 -2.85714,-2.85714 -0.42592,-0.85184 0.42592,-2.00531 0,-2.85715 -0.60234,-1.20467 -1.90476,-1.90476 -2.85714,-2.85714 -0.95239,-0.95238 -1.65247,-2.2548 -2.85715,-2.85714 -0.85183,-0.42592 -2.0053,0.42592 -2.85714,0 -1.20468,-0.60234 -1.65247,-2.25481 -2.85714,-2.85714 -0.86953,-0.43477 -7.2847,0 -8.57143,0 -0.95238,0 -2.18371,-0.67344 -2.85714,0 -0.67344,0.67343 0,1.90476 0,2.85714 0,14.4787 0.85183,-3.40734 -2.85715,11.42857 -0.46197,1.84789 0.37356,3.84651 0,5.71429 -0.59064,2.9532 -2.2665,5.61822 -2.85714,8.57142 -0.37355,1.86778 0,3.80953 0,5.71429 0,6.66667 0,13.33333 0,20 0,13.33333 0,26.66667 0,40 0,5.71429 0,11.42857 0,17.14286 0,0.95238 -0.85184,2.43122 0,2.85714 1.70367,0.85184 3.8664,-0.46197 5.71429,0 2.066,0.5165 3.62605,2.4395 5.71428,2.85714 2.80166,0.56034 5.71429,0 8.57143,0 3.80952,0 7.61905,0 11.42857,0 11.42857,0 22.85714,0 34.28572,0 24.7619,0 49.52381,0 74.28571,0 10.47619,0 20.95238,0 31.42857,0 3.80953,0 7.65734,0.53875 11.42857,0 2.98143,-0.42591 5.60072,-2.36202 8.57143,-2.85714 2.81827,-0.46971 5.71429,0 8.57143,0 2.85714,-0.95238 5.61822,-2.2665 8.57143,-2.85714 5.26894,-1.05379 14.76301,1.0474 20,0 2.08823,-0.41765 3.62605,-2.4395 5.71428,-2.85715 4.66944,-0.93388 9.52381,0 14.28572,0 12.38095,0 24.7619,0 37.14286,0 9.52381,0 19.04761,0 28.57142,0 0.97336,0 9.88227,-0.51543 11.42858,0 20.69547,6.8985 -4.5046,-0.82372 8.57142,5.71429 0.85184,0.42592 2.00531,-0.42592 2.85715,0 2.40935,1.20468 3.15878,4.86245 5.71428,5.71429 1.80702,0.60233 3.90727,-0.60234 5.71429,0 1.93471,0.6449 6.38889,7.48016 8.57143,8.57142 0.85183,0.42592 2.0053,-0.42591 2.85714,0 2.40935,1.20468 3.30493,4.50961 5.71429,5.71429 0.85183,0.42592 2.0053,-0.42592 2.85714,0 6.50326,6.50326 -0.59174,0.75514 5.71428,2.85714 20.69548,6.8985 -4.50459,-0.82372 8.57143,5.71429 0.85184,0.42592 2.00531,-0.42592 2.85715,0 2.40935,1.20468 3.30493,4.50961 5.71428,5.71428 0.85184,0.42592 2.00531,-0.42591 2.85714,0 1.20468,0.60234 1.65247,2.25481 2.85715,2.85715 0.85183,0.42592 2.0053,-0.42592 2.85714,0 1.20468,0.60234 1.65247,2.2548 2.85714,2.85714 0.85184,0.42592 2.18371,-0.67343 2.85715,0 0.67343,0.67344 -0.67344,2.18371 0,2.85714 0.67343,0.67344 2.1837,-0.67343 2.85714,0 3.80952,3.80953 -4.76191,2.85715 2.85714,2.85715"
       id="path3338"
       inkscape:connector-curvature="0" />
  </g>
</svg>
